<svg xmlns="http://www.w3.org/2000/svg" width="1280" height="720" viewBox="0 0 1280 720">
  <rect width="100%" height="100%" fill="#FFFFFF" />
  <text x="110" y="36" font-size="30" font-weight="700" fill="#111827">MAU vs Revenue (36 Months)</text>
  <text x="110" y="88" font-size="16" fill="#4B5563">Each point is a monthly observation of MAU against total monthly revenue</text>
  <text x="675.00" y="696.00" text-anchor="middle" font-size="14" fill="#6B7280">Monthly Active Users (MAU)</text>
  <text x="28" y="350.00" text-anchor="middle" font-size="14" fill="#6B7280" transform="rotate(-90 28 350.00)">Total Revenue (USD)</text>
  <rect x="110.00" y="100.00" width="1130.00" height="500.00" fill="#FFFFFF" stroke="#D1D5DB" />
  <line x1="110.00" y1="600.00" x2="1240.00" y2="600.00" stroke="#E5E7EB" stroke-width="1" /><text x="96.00" y="605.00" text-anchor="end" font-size="13" fill="#6B7280">$0</text><line x1="110.00" y1="516.67" x2="1240.00" y2="516.67" stroke="#E5E7EB" stroke-width="1" /><text x="96.00" y="521.67" text-anchor="end" font-size="13" fill="#6B7280">$3.8K</text><line x1="110.00" y1="433.33" x2="1240.00" y2="433.33" stroke="#E5E7EB" stroke-width="1" /><text x="96.00" y="438.33" text-anchor="end" font-size="13" fill="#6B7280">$7.5K</text><line x1="110.00" y1="350.00" x2="1240.00" y2="350.00" stroke="#E5E7EB" stroke-width="1" /><text x="96.00" y="355.00" text-anchor="end" font-size="13" fill="#6B7280">$11.3K</text><line x1="110.00" y1="266.67" x2="1240.00" y2="266.67" stroke="#E5E7EB" stroke-width="1" /><text x="96.00" y="271.67" text-anchor="end" font-size="13" fill="#6B7280">$15.1K</text><line x1="110.00" y1="183.33" x2="1240.00" y2="183.33" stroke="#E5E7EB" stroke-width="1" /><text x="96.00" y="188.33" text-anchor="end" font-size="13" fill="#6B7280">$18.9K</text><line x1="110.00" y1="100.00" x2="1240.00" y2="100.00" stroke="#E5E7EB" stroke-width="1" /><text x="96.00" y="105.00" text-anchor="end" font-size="13" fill="#6B7280">$22.6K</text>
  <line x1="110.00" y1="600.00" x2="110.00" y2="608.00" stroke="#9CA3AF" stroke-width="1" /><text x="110.00" y="630.00" text-anchor="middle" font-size="13" fill="#6B7280">0</text><line x1="298.33" y1="600.00" x2="298.33" y2="608.00" stroke="#9CA3AF" stroke-width="1" /><text x="298.33" y="630.00" text-anchor="middle" font-size="13" fill="#6B7280">3.6K</text><line x1="486.67" y1="600.00" x2="486.67" y2="608.00" stroke="#9CA3AF" stroke-width="1" /><text x="486.67" y="630.00" text-anchor="middle" font-size="13" fill="#6B7280">7.1K</text><line x1="675.00" y1="600.00" x2="675.00" y2="608.00" stroke="#9CA3AF" stroke-width="1" /><text x="675.00" y="630.00" text-anchor="middle" font-size="13" fill="#6B7280">10.7K</text><line x1="863.33" y1="600.00" x2="863.33" y2="608.00" stroke="#9CA3AF" stroke-width="1" /><text x="863.33" y="630.00" text-anchor="middle" font-size="13" fill="#6B7280">14.2K</text><line x1="1051.67" y1="600.00" x2="1051.67" y2="608.00" stroke="#9CA3AF" stroke-width="1" /><text x="1051.67" y="630.00" text-anchor="middle" font-size="13" fill="#6B7280">17.8K</text><line x1="1240.00" y1="600.00" x2="1240.00" y2="608.00" stroke="#9CA3AF" stroke-width="1" /><text x="1240.00" y="630.00" text-anchor="middle" font-size="13" fill="#6B7280">21.3K</text>
  <path d="M 169.59 429.92 L 191.68 415.25 L 211.60 404.85 L 227.97 392.97 L 245.08 387.99 L 263.25 382.75 L 274.26 384.19 L 291.85 384.05 L 336.56 368.97 L 369.61 355.74 L 362.57 372.45 L 382.01 362.86 L 403.94 345.69 L 431.75 332.23 L 462.58 317.72 L 492.40 307.72 L 528.10 304.75 L 543.31 297.03 L 565.61 294.81 L 592.41 289.96 L 666.09 278.52 L 723.35 260.13 L 687.12 281.60 L 708.73 269.23 L 746.72 255.78 L 791.00 236.15 L 828.77 218.57 L 859.65 206.93 L 901.07 184.86 L 921.89 183.93 L 935.19 184.19 L 966.55 193.28 L 1075.77 163.65 L 1137.27 145.45 L 1079.00 180.53 L 1103.53 159.52" fill="none" stroke="#2563EB" stroke-width="2" stroke-opacity="0.45" />
  <circle cx="169.59" cy="429.92" r="4.5" fill="#2563EB" fill-opacity="0.35" /><circle cx="191.68" cy="415.25" r="4.5" fill="#2563EB" fill-opacity="0.37" /><circle cx="211.60" cy="404.85" r="4.5" fill="#2563EB" fill-opacity="0.39" /><circle cx="227.97" cy="392.97" r="4.5" fill="#2563EB" fill-opacity="0.41" /><circle cx="245.08" cy="387.99" r="4.5" fill="#2563EB" fill-opacity="0.42" /><circle cx="263.25" cy="382.75" r="4.5" fill="#2563EB" fill-opacity="0.44" /><circle cx="274.26" cy="384.19" r="4.5" fill="#2563EB" fill-opacity="0.46" /><circle cx="291.85" cy="384.05" r="4.5" fill="#2563EB" fill-opacity="0.48" /><circle cx="336.56" cy="368.97" r="4.5" fill="#2563EB" fill-opacity="0.50" /><circle cx="369.61" cy="355.74" r="4.5" fill="#2563EB" fill-opacity="0.52" /><circle cx="362.57" cy="372.45" r="4.5" fill="#2563EB" fill-opacity="0.54" /><circle cx="382.01" cy="362.86" r="4.5" fill="#2563EB" fill-opacity="0.55" /><circle cx="403.94" cy="345.69" r="4.5" fill="#2563EB" fill-opacity="0.57" /><circle cx="431.75" cy="332.23" r="4.5" fill="#2563EB" fill-opacity="0.59" /><circle cx="462.58" cy="317.72" r="4.5" fill="#2563EB" fill-opacity="0.61" /><circle cx="492.40" cy="307.72" r="4.5" fill="#2563EB" fill-opacity="0.63" /><circle cx="528.10" cy="304.75" r="4.5" fill="#2563EB" fill-opacity="0.65" /><circle cx="543.31" cy="297.03" r="4.5" fill="#2563EB" fill-opacity="0.67" /><circle cx="565.61" cy="294.81" r="4.5" fill="#2563EB" fill-opacity="0.68" /><circle cx="592.41" cy="289.96" r="4.5" fill="#2563EB" fill-opacity="0.70" /><circle cx="666.09" cy="278.52" r="4.5" fill="#2563EB" fill-opacity="0.72" /><circle cx="723.35" cy="260.13" r="4.5" fill="#2563EB" fill-opacity="0.74" /><circle cx="687.12" cy="281.60" r="4.5" fill="#2563EB" fill-opacity="0.76" /><circle cx="708.73" cy="269.23" r="4.5" fill="#2563EB" fill-opacity="0.78" /><circle cx="746.72" cy="255.78" r="4.5" fill="#2563EB" fill-opacity="0.80" /><circle cx="791.00" cy="236.15" r="4.5" fill="#2563EB" fill-opacity="0.81" /><circle cx="828.77" cy="218.57" r="4.5" fill="#2563EB" fill-opacity="0.83" /><circle cx="859.65" cy="206.93" r="4.5" fill="#2563EB" fill-opacity="0.85" /><circle cx="901.07" cy="184.86" r="4.5" fill="#2563EB" fill-opacity="0.87" /><circle cx="921.89" cy="183.93" r="4.5" fill="#2563EB" fill-opacity="0.89" /><circle cx="935.19" cy="184.19" r="4.5" fill="#2563EB" fill-opacity="0.91" /><circle cx="966.55" cy="193.28" r="4.5" fill="#2563EB" fill-opacity="0.93" /><circle cx="1075.77" cy="163.65" r="4.5" fill="#2563EB" fill-opacity="0.94" /><circle cx="1137.27" cy="145.45" r="4.5" fill="#2563EB" fill-opacity="0.96" /><circle cx="1079.00" cy="180.53" r="4.5" fill="#2563EB" fill-opacity="0.98" /><circle cx="1103.53" cy="159.52" r="4.5" fill="#2563EB" fill-opacity="1.00" />
</svg>
